# This file uses centimeters as units for non-parametric coordinates.

mtllib DrillObj.mtl
g skinCluster10Set tweakSet10
v 6.614100 0.145011 -0.125386
v 6.761501 0.145011 0.328266
v 7.238500 0.145011 0.328266
v 7.385900 0.145011 -0.125386
v 7.000000 0.145011 -0.405759
v 6.614100 1.964152 -0.125386
v 6.761501 1.964152 0.328266
v 7.238500 1.964152 0.328266
v 7.385900 1.964152 -0.125386
v 7.000000 1.964152 -0.405759
vt 0.193369 0.194606
vt 0.246524 0.195098
vt 0.244841 0.397809
vt 0.191720 0.397388
vt 0.299610 0.195551
vt 0.297976 0.398242
vt 0.034302 0.193338
vt 0.087386 0.193759
vt 0.085646 0.396463
vt 0.032577 0.395975
vt 0.140422 0.194213
vt 0.138703 0.396916
vt 0.273735 0.113823
vt 0.316339 0.145295
vt 0.230623 0.144580
vn -0.951057 0.000000 -0.309017
vn -0.587785 0.000000 0.809017
vn -0.587785 0.000000 0.809017
vn -0.951057 0.000000 -0.309017
vn 0.587785 0.000000 0.809017
vn 0.587785 0.000000 0.809017
vn 0.951056 0.000000 -0.309018
vn 0.951056 0.000000 -0.309018
vn 0.000000 0.000000 -1.000000
vn 0.000000 0.000000 -1.000000
vn 0.000000 -1.000000 0.000000
vn 0.000000 -1.000000 0.000000
vn 0.000000 -1.000000 0.000000
vn 0.000000 -1.000000 0.000000
vn 0.000000 -1.000000 0.000000
s 1
g polySurface18 Mesh
usemtl blinn1SG
f 1/1/1 2/2/2 7/3/3 6/4/4
f 2/2/2 3/5/5 8/6/6 7/3/3
f 3/7/5 4/8/7 9/9/8 8/10/6
f 4/8/7 5/11/9 10/12/10 9/9/8
f 5/11/9 1/1/1 6/4/4 10/12/10
s 2
f 5/13/11 4/14/12 2/2/13 1/15/14
f 2/2/13 4/14/12 3/5/15
g skinCluster11Set tweakSet11
v 6.034301 0.455992 -0.236144
v 6.034301 0.733595 -0.145945
v 6.034301 0.733595 0.145945
v 6.034301 0.455992 0.236144
v 6.034301 0.284423 -0.000000
v 6.034301 0.438131 -0.315699
v 6.034301 0.809256 -0.195113
v 6.034301 0.809256 0.195113
v 6.034301 0.438131 0.315699
v 6.034301 0.208762 0.000000
v 5.794585 0.426125 -0.369173
v 5.794585 0.860114 -0.228162
v 5.794585 0.860114 0.228162
v 5.794585 0.426125 0.369173
v 5.794585 0.157904 0.000000
v 5.585820 0.426276 -0.368498
v 5.585820 0.859472 -0.227744
v 5.585820 0.859472 0.227744
v 5.585820 0.426276 0.368498
v 5.585820 0.158547 0.000000
v 5.108259 0.400179 -0.484735
v 5.108259 0.970019 -0.299583
v 5.108259 0.970019 0.299583
v 5.108259 0.400179 0.484735
v 5.108259 0.047999 0.000000
v 4.842881 0.417386 -0.408097
v 4.842881 0.897133 -0.252218
v 4.842881 0.897133 0.252218
v 4.842881 0.417386 0.408097
v 4.842881 0.120886 0.000000
v 4.842881 0.549985 0.000000
v 7.965700 0.455992 -0.236144
v 7.965700 0.733595 -0.145945
v 7.965700 0.733595 0.145945
v 7.965700 0.455992 0.236144
v 7.965700 0.284423 -0.000000
v 7.965700 0.438131 -0.315699
v 7.965700 0.809256 -0.195113
v 7.965700 0.809256 0.195113
v 7.965700 0.438131 0.315699
v 7.965700 0.208762 0.000000
v 8.205416 0.426125 -0.369173
v 8.205416 0.860114 -0.228162
v 8.205416 0.860114 0.228162
v 8.205416 0.426125 0.369173
v 8.205416 0.157904 0.000000
v 8.414181 0.426276 -0.368498
v 8.414181 0.859472 -0.227744
v 8.414181 0.859472 0.227744
v 8.414181 0.426276 0.368498
v 8.414181 0.158547 0.000000
v 8.891741 0.400179 -0.484735
v 8.891741 0.970019 -0.299583
v 8.891741 0.970019 0.299583
v 8.891741 0.400179 0.484735
v 8.891741 0.047999 0.000000
v 9.157119 0.417386 -0.408097
v 9.157119 0.897133 -0.252218
v 9.157119 0.897133 0.252218
v 9.157119 0.417386 0.408097
v 9.157119 0.120886 0.000000
v 9.157119 0.549985 0.000000
vt 0.516382 0.350763
vt 0.508185 0.349994
vt 0.508254 0.308062
vt 0.517557 0.308643
vt 0.509454 0.266779
vt 0.518788 0.266608
vt 0.511873 0.225339
vt 0.520165 0.224981
vt 0.514861 0.180498
vt 0.521491 0.184466
vt 0.517407 0.392298
vt 0.510163 0.396094
vt 0.483244 0.350806
vt 0.483348 0.307883
vt 0.484564 0.265829
vt 0.486934 0.223315
vt 0.489875 0.178190
vt 0.484037 0.396950
vt 0.463184 0.351188
vt 0.463499 0.307762
vt 0.464739 0.264971
vt 0.466957 0.221859
vt 0.470173 0.178674
vt 0.463895 0.395030
vt 0.421785 0.350857
vt 0.422997 0.306713
vt 0.424209 0.263806
vt 0.425656 0.219753
vt 0.427541 0.170220
vt 0.420623 0.400645
vt 0.399550 0.350353
vt 0.401353 0.306351
vt 0.402529 0.262954
vt 0.403453 0.218897
vt 0.403355 0.174035
vt 0.396680 0.395259
vt 0.359854 0.318868
vt 0.372039 0.284000
vt 0.361359 0.248503
vt 0.335033 0.283223
vt 0.807499 0.308625
vt 0.808678 0.350749
vt 0.806264 0.266592
vt 0.804880 0.224967
vt 0.803554 0.184453
vt 0.807656 0.392284
vt 0.816800 0.308049
vt 0.816874 0.349979
vt 0.815597 0.266766
vt 0.813175 0.225326
vt 0.810182 0.180484
vt 0.814900 0.396079
vt 0.841708 0.307866
vt 0.841815 0.350788
vt 0.840487 0.265812
vt 0.838113 0.223298
vt 0.835168 0.178174
vt 0.841027 0.396933
vt 0.861555 0.307743
vt 0.861875 0.351168
vt 0.860312 0.264953
vt 0.858090 0.221841
vt 0.854870 0.178657
vt 0.861169 0.395010
vt 0.902057 0.306689
vt 0.903274 0.350833
vt 0.900842 0.263783
vt 0.899390 0.219731
vt 0.897501 0.170199
vt 0.904440 0.400622
vt 0.923701 0.306325
vt 0.925508 0.350328
vt 0.922521 0.262930
vt 0.921593 0.218873
vt 0.921687 0.174012
vt 0.928382 0.395234
vt 0.965200 0.318839
vt 0.953012 0.283972
vt 0.963689 0.248475
vt 0.990017 0.283192
vn 1.000000 0.000003 0.000000
vn 0.354910 -0.295326 -0.887030
vn 0.386752 0.743660 -0.545338
vn 1.000000 0.000002 0.000000
vn 0.386751 0.743660 0.545337
vn 1.000000 0.000002 0.000000
vn 0.354910 -0.295325 0.887030
vn 1.000000 0.000000 0.000000
vn 0.333480 -0.942757 0.000000
vn 1.000000 0.000003 0.000000
vn 0.110322 -0.303076 -0.946559
vn 0.121635 0.804554 -0.581289
vn 0.121634 0.804555 0.581289
vn 0.110322 -0.303076 0.946559
vn 0.103131 -0.994668 0.000000
vn 0.180390 -0.309399 -0.933666
vn 0.200000 0.790612 -0.578733
vn 0.200000 0.790613 0.578733
vn 0.180390 -0.309399 0.933666
vn 0.168381 -0.985722 0.000000
vn 0.050857 -0.299058 -0.952879
vn 0.056658 0.811367 -0.581784
vn 0.056658 0.811367 0.581784
vn 0.050857 -0.299059 0.952879
vn 0.047257 -0.998883 0.000000
vn -0.570847 -0.260793 -0.778538
vn -0.586436 0.652663 -0.479713
vn -0.586436 0.652663 0.479713
vn -0.570847 -0.260793 0.778537
vn -0.561156 -0.827710 0.000000
vn -1.000000 -0.000000 0.000000
vn 0.000000 0.809017 -0.587785
vn 0.000000 0.809017 -0.587785
vn 0.000000 -0.309017 -0.951057
vn 0.000000 -0.309017 -0.951057
vn 0.000000 0.809017 0.587785
vn 0.000000 0.809017 0.587785
vn 0.000000 -0.309017 0.951057
vn 0.000000 -0.309017 0.951057
vn 0.000000 -1.000000 0.000000
vn 0.000000 -1.000000 0.000000
vn -1.000000 0.000000 0.000000
vn -1.000000 -0.000002 0.000000
vn -0.386752 0.743660 -0.545338
vn -0.354910 -0.295326 -0.887030
vn -1.000000 -0.000002 0.000000
vn -0.386752 0.743660 0.545338
vn -1.000000 0.000003 0.000000
vn -0.354910 -0.295326 0.887030
vn -1.000000 0.000003 0.000000
vn -0.333480 -0.942757 -0.000000
vn -0.121635 0.804555 -0.581289
vn -0.110322 -0.303076 -0.946559
vn -0.121635 0.804555 0.581289
vn -0.110322 -0.303076 0.946559
vn -0.103131 -0.994668 -0.000000
vn -0.200000 0.790612 -0.578733
vn -0.180391 -0.309399 -0.933666
vn -0.200000 0.790612 0.578733
vn -0.180391 -0.309399 0.933666
vn -0.168382 -0.985722 0.000000
vn -0.056658 0.811367 -0.581784
vn -0.050857 -0.299059 -0.952879
vn -0.056658 0.811367 0.581784
vn -0.050857 -0.299058 0.952879
vn -0.047257 -0.998883 0.000000
vn 0.586436 0.652663 -0.479712
vn 0.570847 -0.260793 -0.778537
vn 0.586435 0.652664 0.479712
vn 0.570847 -0.260793 0.778537
vn 0.561156 -0.827710 -0.000000
vn 1.000000 -0.000001 0.000000
s 1
g Mesh polySurface19
usemtl blinn1SG
f 11/16/16 16/17/17 17/18/18 12/19/19
f 12/19/19 17/18/18 18/20/20 13/21/21
f 13/21/21 18/20/20 19/22/22 14/23/23
f 14/23/23 19/22/22 20/24/24 15/25/25
f 15/26/25 20/27/24 16/17/17 11/16/16
f 16/17/17 21/28/26 22/29/27 17/18/18
f 17/18/18 22/29/27 23/30/28 18/20/20
f 18/20/20 23/30/28 24/31/29 19/22/22
f 19/22/22 24/31/29 25/32/30 20/24/24
f 20/27/24 25/33/30 21/28/26 16/17/17
f 21/28/26 26/34/31 27/35/32 22/29/27
f 22/29/27 27/35/32 28/36/33 23/30/28
f 23/30/28 28/36/33 29/37/34 24/31/29
f 24/31/29 29/37/34 30/38/35 25/32/30
f 25/33/30 30/39/35 26/34/31 21/28/26
f 26/34/31 31/40/36 32/41/37 27/35/32
f 27/35/32 32/41/37 33/42/38 28/36/33
f 28/36/33 33/42/38 34/43/39 29/37/34
f 29/37/34 34/43/39 35/44/40 30/38/35
f 30/39/35 35/45/40 31/40/36 26/34/31
f 31/40/36 36/46/41 37/47/42 32/41/37
f 32/41/37 37/47/42 38/48/43 33/42/38
f 33/42/38 38/48/43 39/49/44 34/43/39
f 34/43/39 39/49/44 40/50/45 35/44/40
f 35/45/40 40/51/45 36/46/41 31/40/36
f 36/52/41 41/53/46 37/47/42
f 37/47/42 41/53/46 38/48/43
f 38/48/43 41/53/46 39/54/44
f 39/54/44 41/53/46 40/55/45
f 40/55/45 41/53/46 36/52/41
s 2
f 12/19/47 43/56/48 42/57/49 11/16/50
f 13/21/51 44/58/52 43/56/48 12/19/47
f 14/23/53 45/59/54 44/58/52 13/21/51
f 15/25/55 46/60/56 45/59/54 14/23/53
f 11/16/50 42/57/49 46/61/56 15/26/55
s 3
f 42/57/57 43/56/58 48/62/59 47/63/60
f 43/56/58 44/58/61 49/64/62 48/62/59
f 44/58/61 45/59/63 50/65/64 49/64/62
f 45/59/63 46/60/65 51/66/66 50/65/64
f 46/61/65 42/57/57 47/63/60 51/67/66
f 47/63/60 48/62/59 53/68/67 52/69/68
f 48/62/59 49/64/62 54/70/69 53/68/67
f 49/64/62 50/65/64 55/71/70 54/70/69
f 50/65/64 51/66/66 56/72/71 55/71/70
f 51/67/66 47/63/60 52/69/68 56/73/71
f 52/69/68 53/68/67 58/74/72 57/75/73
f 53/68/67 54/70/69 59/76/74 58/74/72
f 54/70/69 55/71/70 60/77/75 59/76/74
f 55/71/70 56/72/71 61/78/76 60/77/75
f 56/73/71 52/69/68 57/75/73 61/79/76
f 57/75/73 58/74/72 63/80/77 62/81/78
f 58/74/72 59/76/74 64/82/79 63/80/77
f 59/76/74 60/77/75 65/83/80 64/82/79
f 60/77/75 61/78/76 66/84/81 65/83/80
f 61/79/76 57/75/73 62/81/78 66/85/81
f 62/81/78 63/80/77 68/86/82 67/87/83
f 63/80/77 64/82/79 69/88/84 68/86/82
f 64/82/79 65/83/80 70/89/85 69/88/84
f 65/83/80 66/84/81 71/90/86 70/89/85
f 66/85/81 62/81/78 67/87/83 71/91/86
f 67/92/83 68/86/82 72/93/87
f 68/86/82 69/88/84 72/93/87
f 69/88/84 70/94/85 72/93/87
f 70/94/85 71/95/86 72/93/87
f 71/95/86 67/92/83 72/93/87
g skinCluster9Set tweakSet9
v 8.378881 1.895615 -2.388289
v 5.621121 1.895615 -2.388289
v 4.242242 1.895615 -0.000000
v 5.621120 1.895615 2.388289
v 8.378880 1.895615 2.388289
v 9.757758 1.895615 0.000000
v 7.000000 8.719775 -0.000000
vt 0.336687 0.441231
vt 0.533647 0.424025
vt 0.480275 0.949000
vt 0.723116 0.480518
vt 0.878493 0.602778
vt 0.977967 0.773642
vt 0.028058 0.677068
vt 0.159883 0.529719
vt 0.214251 0.888628
vt 0.167894 0.968921
vt 0.028821 0.888628
vt 0.075178 0.808334
vt 0.167894 0.808334
vt 0.075178 0.968921
vn 0.463577 0.374679 -0.802939
vn -0.463577 0.374679 -0.802940
vn -0.000000 1.000000 0.000000
vn -0.927155 0.374679 -0.000000
vn -0.463577 0.374679 0.802939
vn 0.463577 0.374679 0.802939
vn 0.927155 0.374679 0.000000
vn 0.000000 -1.000000 0.000000
vn 0.000000 -1.000000 0.000000
vn 0.000000 -1.000000 0.000000
vn 0.000000 -1.000000 0.000000
vn 0.000000 -1.000000 0.000000
vn 0.000000 -1.000000 0.000000
s 1
g Mesh polySurface17
usemtl blinn1SG
f 73/96/88 74/97/89 79/98/90
f 74/97/89 75/99/91 79/98/90
f 75/99/91 76/100/92 79/98/90
f 76/100/92 77/101/93 79/98/90
f 77/102/93 78/103/94 79/98/90
f 78/103/94 73/96/88 79/98/90
s 2
f 78/104/95 77/105/96 75/106/97 74/107/98
f 74/107/98 73/108/99 78/104/95
f 77/105/96 76/109/100 75/106/97
