# This file uses centimeters as units for non-parametric coordinates.

mtllib FishOBJ.mtl
g default
v 0.000000 30.034325 -55.185226
v 0.000000 28.891621 -59.089066
v 0.000000 28.701666 -57.700031
v 0.000000 30.509508 -51.803276
v 0.000000 29.789110 -45.727673
v 0.000000 38.028328 -47.314457
v 0.000000 39.750927 -39.220863
v 0.000000 32.960682 -58.521355
v 0.000000 36.172844 -54.409454
v 0.000000 26.263832 -38.829945
v 0.000000 20.761663 -34.221939
v 0.000000 41.510086 -30.827578
v 0.000000 16.835955 -29.726110
v 0.000000 46.601013 -22.416538
v 0.000000 13.087276 -26.927174
v 0.000000 58.004288 -3.919495
v 0.000000 51.990383 -14.520864
v 0.000000 63.258179 10.497967
v 0.000000 60.063202 27.948534
v 0.000000 0.500742 9.458891
v 0.000000 2.136212 -11.642038
v 0.000000 1.386788 28.071928
v 0.000000 11.160516 -30.292253
v 0.000000 2.880149 -24.385012
v 0.000000 4.242022 -31.235832
v 0.000000 6.991504 -40.948269
v 0.000000 11.155621 -39.483997
v 0.000000 12.223358 -44.871666
v 0.000000 8.934570 -46.438255
v 0.000000 49.706169 43.853844
v 0.000000 5.055871 41.152054
v 0.000000 13.532037 57.159470
v 0.000000 41.037933 54.316826
v 0.000000 35.373703 66.111351
v 0.000000 16.521126 64.330162
v 0.000000 23.188541 77.755150
v 0.000000 28.895596 77.988365
v 0.000000 14.883855 -52.912540
v 0.000000 13.526487 -55.656254
v 0.000000 16.873947 -54.854126
v 0.000000 16.775425 -56.199898
v -3.149368 30.034325 -55.185226
v -1.650931 32.836319 -58.107506
v -1.192631 28.701666 -57.700031
v -3.046753 35.145245 -54.225456
v -4.528356 30.509508 -51.803276
v -4.670881 36.659264 -45.791649
v -6.618462 29.789110 -45.727673
v -9.957331 30.523594 -37.735424
v -6.358387 37.798565 -37.253082
v -8.651541 26.263832 -38.829945
v -10.237372 20.761663 -34.221939
v -10.998833 29.333923 -31.792665
v -7.519397 38.280178 -30.482407
v -12.662281 27.070152 -24.702414
v -11.521857 16.835955 -29.726110
v -9.355536 40.897804 -21.667048
v -17.246237 21.050924 -6.394644
v -15.741280 25.218113 -17.268740
v -11.517207 13.087276 -26.927174
v -9.258940 6.392776 -12.241116
v -11.819023 45.304268 -2.290225
v -10.469481 43.258541 -13.221712
v -7.878507 2.606663 8.780825
v -18.145533 17.987871 10.594236
v -12.217150 45.922459 11.755935
v -6.117881 2.877816 27.158716
v -16.131273 17.680843 26.756363
v -11.425566 45.544750 27.315159
v -6.920495 3.927115 -24.393732
v -8.892526 11.160516 -30.292253
v -6.227216 6.001482 -31.090393
v -4.148324 8.506791 -40.494415
v -5.652761 11.155621 -39.483997
v -4.258453 12.223358 -44.871666
v -2.737364 9.793530 -46.029228
v -8.684848 39.697865 43.137836
v -12.787805 20.690243 42.292645
v -6.175329 8.221577 43.115108
v -4.732450 14.814998 56.252701
v -8.585849 22.568268 54.892387
v -6.115004 35.050018 54.589207
v -3.858749 32.533211 66.089935
v -6.234314 23.868853 65.961632
v -4.192820 18.885963 65.481285
v -2.198186 14.712428 -54.633389
v -0.885817 16.873947 -55.631264
v 3.149368 30.034325 -55.185226
v 1.650931 32.836319 -58.107506
v 1.192631 28.701666 -57.700031
v 3.046753 35.145245 -54.225456
v 4.528356 30.509508 -51.803276
v 4.670881 36.659264 -45.791649
v 6.618462 29.789110 -45.727673
v 9.957331 30.523594 -37.735424
v 6.358387 37.798565 -37.253082
v 8.651541 26.263832 -38.829945
v 10.237372 20.761663 -34.221939
v 10.998833 29.333923 -31.792665
v 7.519397 38.280178 -30.482407
v 12.662281 27.070152 -24.702414
v 11.521857 16.835955 -29.726110
v 9.355536 40.897804 -21.667048
v 17.246237 21.050924 -6.394644
v 15.741280 25.218113 -17.268740
v 11.517207 13.087276 -26.927174
v 9.258940 6.392776 -12.241116
v 11.819023 45.304268 -2.290225
v 10.469481 43.258541 -13.221712
v 7.878507 2.606663 8.780825
v 18.145533 17.987871 10.594236
v 12.217150 45.922459 11.755935
v 6.117881 2.877816 27.158716
v 16.131273 17.680843 26.756363
v 11.425566 45.544750 27.315159
v 6.920495 3.927115 -24.393732
v 8.892526 11.160516 -30.292253
v 6.227216 6.001482 -31.090393
v 4.148324 8.506791 -40.494415
v 5.652761 11.155621 -39.483997
v 4.258453 12.223358 -44.871666
v 2.737364 9.793530 -46.029228
v 8.684848 39.697865 43.137836
v 12.787805 20.690243 42.292645
v 6.175329 8.221577 43.115108
v 4.732450 14.814998 56.252701
v 8.585849 22.568268 54.892387
v 6.115004 35.050018 54.589207
v 3.858749 32.533211 66.089935
v 6.234314 23.868853 65.961632
v 4.192820 18.885963 65.481285
v 2.198186 14.712428 -54.633389
v 0.885817 16.873947 -55.631264
v -0.360503 49.146992 44.197853
v 0.000000 57.454456 11.107971
v 0.000000 78.341286 44.865761
v 0.000000 85.792221 19.244049
v 20.023556 4.325941 9.934959
v 15.806074 -12.498254 -0.167244
v 7.428078 4.430395 -4.523272
v 4.566250 2.818251 -6.341139
v -12.412777 3.239243 53.183151
v -11.530556 -9.792531 50.528797
v -3.849356 6.576874 40.243389
v -2.587991 5.088575 37.034515
v 0.000000 44.067047 66.792221
v 0.000000 39.096539 54.157856
v 0.000000 50.538338 61.104477
v -0.453866 42.678040 48.963982
v -0.471445 11.288395 71.324486
v -0.068051 -3.256315 59.793064
v -0.208154 19.722801 61.683842
v 0.000000 12.078762 49.355713
v 0.000000 -3.501287 106.360725
v 0.000000 20.764141 69.366829
v 0.000000 59.670662 106.360725
v 0.000000 33.417046 69.366829
v 12.412777 3.239243 53.183151
v 11.530556 -9.792531 50.528797
v 3.849356 6.576874 40.243389
v 2.587991 5.088575 37.034515
v -20.023556 4.325941 9.934959
v -15.806074 -12.498254 -0.167244
v -7.428078 4.430395 -4.523272
v -4.566250 2.818251 -6.341139
vt 0.054803 0.703164
vt 0.034039 0.724964
vt 0.018239 0.698209
vt 0.031267 0.696853
vt 0.082595 0.704393
vt 0.062447 0.738869
vt 0.131869 0.699980
vt 0.123533 0.753630
vt 0.192050 0.711347
vt 0.184790 0.767594
vt 0.156165 0.808896
vt 0.100189 0.784051
vt 0.023136 0.729970
vt 0.050970 0.759444
vt 0.186250 0.680543
vt 0.221885 0.660906
vt 0.231724 0.708423
vt 0.232493 0.775158
vt 0.213548 0.830477
vt 0.247762 0.637221
vt 0.278826 0.695659
vt 0.294225 0.791435
vt 0.272938 0.863203
vt 0.353562 0.553189
vt 0.398399 0.659065
vt 0.329282 0.684628
vt 0.256563 0.598890
vt 0.350723 0.806506
vt 0.422784 0.818323
vt 0.329788 0.896483
vt 0.405527 0.934078
vt 0.493782 0.522491
vt 0.505280 0.640823
vt 0.514068 0.822508
vt 0.507221 0.965999
vt 0.616902 0.521187
vt 0.607681 0.637457
vt 0.615446 0.819782
vt 0.628614 0.943994
vt 0.350327 0.482237
vt 0.497943 0.466599
vt 0.629979 0.479308
vt 0.267124 0.532213
vt 0.230727 0.588887
vt 0.225221 0.551854
vt 0.261680 0.497404
vt 0.215020 0.508310
vt 0.150901 0.530760
vt 0.161525 0.560652
vt 0.169530 0.582343
vt 0.121279 0.564310
vt 0.129290 0.584548
vt 0.112890 0.545754
vt 0.711360 0.654205
vt 0.723190 0.784499
vt 0.741969 0.874405
vt 0.723714 0.559786
vt 0.723018 0.509574
vt 0.817769 0.602308
vt 0.836639 0.571442
vt 0.802817 0.663783
vt 0.805793 0.754404
vt 0.817175 0.814964
vt 0.900035 0.768773
vt 0.889372 0.735156
vt 0.882509 0.671407
vt 0.883242 0.633100
vt 0.888235 0.596889
vt 0.979630 0.663006
vt 0.981757 0.707293
vt 0.049501 0.577078
vt 0.060310 0.590500
vt 0.048006 0.600078
vt 0.042082 0.599739
vt 0.213906 0.611433
vt 0.163452 0.620480
vt 0.125196 0.613921
vt 0.068610 0.605844
vt 0.050214 0.605654
vt 0.228454 0.616790
vt 0.219177 0.631797
vt 0.201443 0.634889
vt 0.157518 0.634689
vt 0.111166 0.656108
vt 0.069924 0.672521
vt 0.046426 0.681911
vt 0.026919 0.690052
vt 0.054803 0.703164
vt 0.034039 0.724964
vt 0.018239 0.698209
vt 0.031267 0.696853
vt 0.082595 0.704393
vt 0.062447 0.738869
vt 0.131869 0.699980
vt 0.123533 0.753630
vt 0.192050 0.711347
vt 0.184790 0.767594
vt 0.156165 0.808896
vt 0.100189 0.784051
vt 0.023136 0.729970
vt 0.050970 0.759444
vt 0.186250 0.680543
vt 0.221885 0.660906
vt 0.231724 0.708423
vt 0.232493 0.775158
vt 0.213548 0.830477
vt 0.247762 0.637221
vt 0.278826 0.695659
vt 0.294225 0.791435
vt 0.272938 0.863203
vt 0.353562 0.553189
vt 0.398399 0.659065
vt 0.329282 0.684628
vt 0.256563 0.598890
vt 0.350723 0.806506
vt 0.422784 0.818323
vt 0.329788 0.896483
vt 0.405527 0.934078
vt 0.493782 0.522491
vt 0.505280 0.640823
vt 0.514068 0.822508
vt 0.507221 0.965999
vt 0.616902 0.521187
vt 0.607681 0.637457
vt 0.615446 0.819782
vt 0.628614 0.943994
vt 0.350327 0.482237
vt 0.497943 0.466599
vt 0.629979 0.479308
vt 0.267124 0.532213
vt 0.230727 0.588887
vt 0.225221 0.551854
vt 0.261680 0.497404
vt 0.215020 0.508310
vt 0.150901 0.530760
vt 0.161525 0.560652
vt 0.169530 0.582343
vt 0.121279 0.564310
vt 0.129290 0.584548
vt 0.112890 0.545754
vt 0.711360 0.654205
vt 0.723190 0.784499
vt 0.741969 0.874405
vt 0.723714 0.559786
vt 0.723018 0.509574
vt 0.817769 0.602308
vt 0.836639 0.571442
vt 0.802817 0.663783
vt 0.805793 0.754404
vt 0.817175 0.814964
vt 0.900035 0.768773
vt 0.889372 0.735156
vt 0.882509 0.671407
vt 0.883242 0.633100
vt 0.888235 0.596889
vt 0.979630 0.663006
vt 0.981757 0.707293
vt 0.049501 0.577078
vt 0.060310 0.590500
vt 0.048006 0.600078
vt 0.042082 0.599739
vt 0.213906 0.611433
vt 0.163452 0.620480
vt 0.125196 0.613921
vt 0.068610 0.605844
vt 0.050214 0.605654
vt 0.228454 0.616790
vt 0.219177 0.631797
vt 0.201443 0.634889
vt 0.157518 0.634689
vt 0.111166 0.656108
vt 0.069924 0.672521
vt 0.046426 0.681911
vt 0.026919 0.690052
vt 0.330194 0.271088
vt 0.020948 0.271088
vt 0.050395 0.497313
vt 0.285249 0.439969
vt 0.215370 0.024561
vt 0.077235 0.102184
vt 0.077235 0.173291
vt 0.215370 0.250913
vt 0.967514 0.248531
vt 0.741484 0.248531
vt 0.797737 0.039675
vt 0.911261 0.039675
vt 0.609359 0.412876
vt 0.417427 0.400009
vt 0.417427 0.312346
vt 0.609359 0.299478
vt 0.772295 0.457595
vt 0.933947 0.461421
vt 0.872604 0.304202
vt 0.775513 0.305680
vt 0.251033 0.019641
vt 0.431903 0.266573
vt 0.589831 0.266573
vt 0.770701 0.019641
vt 0.967514 0.248531
vt 0.911261 0.039675
vt 0.797737 0.039675
vt 0.741484 0.248531
vt 0.215370 0.024561
vt 0.215370 0.250913
vt 0.077235 0.173291
vt 0.077235 0.102184
vn -0.826838 -0.480886 -0.291697
vn -0.699134 0.347931 -0.624624
vn 0.000000 -0.243451 -0.969913
vn -0.745938 -0.566166 -0.350759
vn -0.858924 -0.418441 -0.295224
vn -0.742150 0.572325 -0.348796
vn -0.757066 -0.419420 -0.500936
vn -0.724487 0.631310 -0.276705
vn -0.936921 0.239903 -0.254218
vn -0.695634 0.685035 -0.216382
vn -0.000000 0.981520 -0.191360
vn -0.000000 0.974344 -0.225063
vn -0.000000 0.677964 -0.735095
vn -0.000000 0.939916 -0.341407
vn -0.424575 -0.631993 -0.648321
vn -0.575415 -0.502403 -0.645359
vn -0.954253 0.203092 -0.219443
vn -0.739366 0.617439 -0.268529
vn 0.000000 0.934806 -0.355158
vn -0.727207 -0.359279 -0.584884
vn -0.949153 0.181090 -0.257518
vn -0.779660 0.535366 -0.324829
vn -0.000000 0.887402 -0.460997
vn -0.781550 -0.618135 -0.084191
vn -0.991015 -0.109718 -0.076489
vn -0.987359 0.014238 -0.157859
vn -0.871756 -0.394321 -0.290780
vn -0.853038 0.469574 -0.227654
vn -0.906245 0.407922 -0.110999
vn 0.000000 0.905984 -0.423312
vn 0.000000 0.958561 -0.284888
vn -0.698824 -0.715038 -0.019101
vn -0.989949 -0.139612 0.022588
vn -0.926118 0.376884 0.016231
vn 0.000000 0.999597 -0.028374
vn -0.692066 -0.706214 0.149353
vn -0.978612 -0.138933 0.151715
vn -0.908797 0.377939 0.176780
vn -0.000000 0.954432 0.298429
vn 0.000000 -0.996411 -0.084651
vn 0.000000 -0.998967 -0.045438
vn -0.000000 -0.987227 0.159322
vn -0.599499 -0.796657 -0.077060
vn -0.730300 0.483387 -0.482700
vn -0.587525 -0.750124 -0.303526
vn -0.000000 -0.987334 -0.158655
vn -0.000000 -0.960815 -0.277191
vn -0.000000 -0.952494 -0.304558
vn -0.590823 -0.741739 -0.317414
vn -0.617996 0.767429 -0.170689
vn -0.597452 -0.715002 -0.363075
vn -0.592653 0.803324 0.058592
vn -0.000000 -0.909939 -0.414742
vn -0.964274 -0.081441 0.252077
vn -0.886948 0.351478 0.299644
vn -0.000000 0.839907 0.542731
vn -0.715189 -0.627235 0.308354
vn -0.000000 -0.933138 0.359519
vn -0.704233 -0.605823 0.370182
vn 0.000000 -0.892757 0.450539
vn -0.956053 -0.052850 0.288391
vn -0.868323 0.378226 0.320875
vn -0.000000 0.839876 0.542778
vn 0.000000 0.908610 0.417645
vn -0.865215 0.388368 0.317132
vn -0.953889 0.011661 0.299932
vn -0.733425 -0.588728 0.339834
vn 0.000000 -0.908559 0.417757
vn 0.000000 0.078665 0.996901
vn 0.000000 0.394098 0.919068
vn -0.000000 -0.815851 -0.578262
vn -0.925753 -0.057886 -0.373671
vn -0.845899 0.380018 -0.374221
vn -0.000000 -0.062419 -0.998050
vn 0.000000 0.981575 -0.191079
vn 0.000000 0.998426 0.056094
vn -0.000000 0.972395 0.233340
vn -0.000000 0.953200 0.302341
vn -0.000000 0.729441 0.684044
vn 0.000000 0.033361 -0.999443
vn 0.000000 -0.686775 -0.726870
vn 0.000000 -0.698583 -0.715529
vn 0.000000 -0.773231 -0.634125
vn 0.000000 -0.941644 -0.336611
vn 0.000000 -0.998908 -0.046719
vn 0.000000 -0.968809 0.247809
vn 0.000000 -0.914604 0.404351
vn 0.826838 -0.480886 -0.291697
vn 0.745939 -0.566166 -0.350758
vn 0.699134 0.347931 -0.624624
vn 0.858924 -0.418440 -0.295224
vn 0.742150 0.572325 -0.348796
vn 0.757067 -0.419420 -0.500936
vn 0.724487 0.631310 -0.276705
vn 0.695634 0.685035 -0.216382
vn 0.936920 0.239903 -0.254217
vn 0.424575 -0.631993 -0.648321
vn 0.954253 0.203092 -0.219443
vn 0.575415 -0.502403 -0.645359
vn 0.739366 0.617439 -0.268529
vn 0.727207 -0.359279 -0.584884
vn 0.949153 0.181090 -0.257518
vn 0.779660 0.535366 -0.324829
vn 0.781550 -0.618135 -0.084191
vn 0.871756 -0.394321 -0.290780
vn 0.987359 0.014238 -0.157859
vn 0.991015 -0.109718 -0.076489
vn 0.853038 0.469574 -0.227654
vn 0.906245 0.407922 -0.110999
vn 0.989949 -0.139612 0.022588
vn 0.698825 -0.715038 -0.019101
vn 0.926118 0.376884 0.016231
vn 0.978612 -0.138933 0.151715
vn 0.692066 -0.706215 0.149353
vn 0.908797 0.377939 0.176780
vn 0.599500 -0.796657 -0.077060
vn 0.587525 -0.750124 -0.303526
vn 0.730300 0.483387 -0.482700
vn 0.590823 -0.741739 -0.317414
vn 0.617996 0.767429 -0.170689
vn 0.597452 -0.715002 -0.363075
vn 0.592652 0.803324 0.058592
vn 0.964274 -0.081441 0.252077
vn 0.886948 0.351478 0.299644
vn 0.715189 -0.627235 0.308353
vn 0.704233 -0.605823 0.370182
vn 0.956053 -0.052850 0.288391
vn 0.868323 0.378225 0.320875
vn 0.865216 0.388368 0.317132
vn 0.953889 0.011661 0.299932
vn 0.733425 -0.588728 0.339834
vn 0.925753 -0.057886 -0.373671
vn 0.845899 0.380018 -0.374221
vn 0.999967 -0.006921 0.004282
vn 0.999967 -0.006921 0.004282
vn 0.999967 -0.006921 0.004282
vn 0.999967 -0.006921 0.004282
vn -0.706161 -0.172795 0.686643
vn -0.706161 -0.172795 0.686643
vn -0.706161 -0.172795 0.686643
vn -0.706161 -0.172795 0.686643
vn 0.855612 -0.080179 0.511370
vn 0.855612 -0.080179 0.511370
vn 0.855612 -0.080179 0.511370
vn 0.855612 -0.080179 0.511370
vn 0.999512 0.016216 -0.026709
vn 0.999512 0.016216 -0.026709
vn 0.999512 0.016216 -0.026709
vn 0.999512 0.016216 -0.026709
vn 0.999757 0.004317 0.021610
vn 0.999757 0.004317 0.021610
vn 0.999757 0.004317 0.021610
vn 0.999757 0.004317 0.021610
vn 1.000000 -0.000000 -0.000000
vn 1.000000 -0.000000 -0.000000
vn 1.000000 -0.000000 -0.000000
vn 1.000000 -0.000000 -0.000000
vn -0.855612 -0.080179 0.511370
vn -0.855612 -0.080179 0.511370
vn -0.855612 -0.080179 0.511370
vn -0.855612 -0.080179 0.511370
vn 0.706161 -0.172795 0.686643
vn 0.706161 -0.172795 0.686643
vn 0.706161 -0.172795 0.686643
vn 0.706161 -0.172795 0.686643
s 1
g polySurface38
usemtl lambert3SG
f 42/1/1 43/2/2 2/3/3 44/4/4
f 46/5/5 45/6/6 43/2/2 42/1/1
f 48/7/7 47/8/8 45/6/6 46/5/5
f 47/8/8 48/7/7 49/9/9 50/10/10
f 47/8/8 50/10/10 7/11/11 6/12/12
f 8/13/13 2/3/3 43/2/2
f 9/14/14 8/13/13 43/2/2 45/6/6
f 6/12/12 9/14/14 45/6/6 47/8/8
f 48/7/7 51/15/15 49/9/9
f 51/15/15 52/16/16 53/17/17 49/9/9
f 53/17/17 54/18/18 50/10/10 49/9/9
f 50/10/10 54/18/18 12/19/19 7/11/11
f 56/20/20 55/21/21 53/17/17 52/16/16
f 55/21/21 57/22/22 54/18/18 53/17/17
f 54/18/18 57/22/22 14/23/23 12/19/19
f 61/24/24 58/25/25 59/26/26 60/27/27
f 55/21/21 56/20/20 60/27/27 59/26/26
f 63/28/28 59/26/26 58/25/25 62/29/29
f 57/22/22 55/21/21 59/26/26 63/28/28
f 17/30/30 63/28/28 62/29/29 16/31/31
f 14/23/23 57/22/22 63/28/28 17/30/30
f 58/25/25 61/24/24 64/32/32 65/33/33
f 65/33/33 66/34/34 62/29/29 58/25/25
f 16/31/31 62/29/29 66/34/34 18/35/35
f 64/32/32 67/36/36 68/37/37 65/33/33
f 68/37/37 69/38/38 66/34/34 65/33/33
f 19/39/39 18/35/35 66/34/34 69/38/38
f 21/40/40 20/41/41 64/32/32 61/24/24
f 20/41/41 22/42/42 67/36/36 64/32/32
f 60/27/27 70/43/43 21/40/40 61/24/24
f 60/27/27 71/44/44 72/45/45 70/43/43
f 21/40/40 70/43/43 24/46/46
f 70/43/43 72/45/45 25/47/47 24/46/46
f 26/48/48 25/47/47 72/45/45 73/49/49
f 71/44/44 74/50/50 73/49/49 72/45/45
f 76/51/51 73/49/49 74/50/50 75/52/52
f 73/49/49 76/51/51 29/53/53 26/48/48
f 78/54/54 77/55/55 69/38/38 68/37/37
f 30/56/56 19/39/39 69/38/38 77/55/55
f 79/57/57 78/54/54 68/37/37 67/36/36
f 22/42/42 31/58/58 79/57/57 67/36/36
f 80/59/59 79/57/57 31/58/58 32/60/60
f 81/61/61 78/54/54 79/57/57 80/59/59
f 81/61/61 82/62/62 77/55/55 78/54/54
f 77/55/55 82/62/62 33/63/63 30/56/56
f 34/64/64 33/63/63 82/62/62 83/65/65
f 81/61/61 84/66/66 83/65/65 82/62/62
f 80/59/59 85/67/67 84/66/66 81/61/61
f 85/67/67 80/59/59 32/60/60 35/68/68
f 84/66/66 36/69/69 37/70/70 83/65/65
f 37/70/70 34/64/64 83/65/65
f 36/69/69 84/66/66 85/67/67
f 35/68/68 36/69/69 85/67/67
f 39/71/71 29/53/53 76/51/51 86/72/72
f 86/72/72 76/51/51 75/52/52
f 86/72/72 87/73/73 41/74/74 39/71/71
f 74/50/50 71/44/44 23/75/75 27/76/76
f 75/52/52 74/50/50 27/76/76 28/77/77
f 86/72/72 75/52/52 28/77/77 38/78/78
f 87/73/73 86/72/72 38/78/78 40/79/79
f 40/79/79 41/74/74 87/73/73
f 71/44/44 60/27/27 15/80/80 23/75/75
f 13/81/81 15/80/80 60/27/27 56/20/20
f 56/20/20 52/16/16 11/82/82 13/81/81
f 52/16/16 51/15/15 10/83/83 11/82/82
f 51/15/15 48/7/7 5/84/84 10/83/83
f 4/85/85 5/84/84 48/7/7 46/5/5
f 46/5/5 42/1/1 1/86/86 4/85/85
f 3/87/87 1/86/86 42/1/1 44/4/4
f 44/4/4 2/3/3 3/87/87
f 88/88/88 90/91/89 2/90/3 89/89/90
f 92/92/91 88/88/88 89/89/90 91/93/92
f 94/94/93 92/92/91 91/93/92 93/95/94
f 93/95/94 96/97/95 95/96/96 94/94/93
f 93/95/94 6/99/12 7/98/11 96/97/95
f 8/100/13 89/89/90 2/90/3
f 9/101/14 91/93/92 89/89/90 8/100/13
f 6/99/12 93/95/94 91/93/92 9/101/14
f 94/94/93 95/96/96 97/102/97
f 97/102/97 95/96/96 99/104/98 98/103/99
f 99/104/98 95/96/96 96/97/95 100/105/100
f 96/97/95 7/98/11 12/106/19 100/105/100
f 102/107/101 98/103/99 99/104/98 101/108/102
f 101/108/102 99/104/98 100/105/100 103/109/103
f 100/105/100 12/106/19 14/110/23 103/109/103
f 107/111/104 106/114/105 105/113/106 104/112/107
f 101/108/102 105/113/106 106/114/105 102/107/101
f 109/115/108 108/116/109 104/112/107 105/113/106
f 103/109/103 109/115/108 105/113/106 101/108/102
f 17/117/30 16/118/31 108/116/109 109/115/108
f 14/110/23 17/117/30 109/115/108 103/109/103
f 104/112/107 111/120/110 110/119/111 107/111/104
f 111/120/110 104/112/107 108/116/109 112/121/112
f 16/118/31 18/122/35 112/121/112 108/116/109
f 110/119/111 111/120/110 114/124/113 113/123/114
f 114/124/113 111/120/110 112/121/112 115/125/115
f 19/126/39 115/125/115 112/121/112 18/122/35
f 21/127/40 107/111/104 110/119/111 20/128/41
f 20/128/41 110/119/111 113/123/114 22/129/42
f 106/114/105 107/111/104 21/127/40 116/130/116
f 106/114/105 116/130/116 118/132/117 117/131/118
f 21/127/40 24/133/46 116/130/116
f 116/130/116 24/133/46 25/134/47 118/132/117
f 26/135/48 119/136/119 118/132/117 25/134/47
f 117/131/118 118/132/117 119/136/119 120/137/120
f 122/138/121 121/139/122 120/137/120 119/136/119
f 119/136/119 26/135/48 29/140/53 122/138/121
f 124/141/123 114/124/113 115/125/115 123/142/124
f 30/143/56 123/142/124 115/125/115 19/126/39
f 125/144/125 113/123/114 114/124/113 124/141/123
f 22/129/42 113/123/114 125/144/125 31/145/58
f 126/146/126 32/147/60 31/145/58 125/144/125
f 127/148/127 126/146/126 125/144/125 124/141/123
f 127/148/127 124/141/123 123/142/124 128/149/128
f 123/142/124 30/143/56 33/150/63 128/149/128
f 34/151/64 129/152/129 128/149/128 33/150/63
f 127/148/127 128/149/128 129/152/129 130/153/130
f 126/146/126 127/148/127 130/153/130 131/154/131
f 131/154/131 35/155/68 32/147/60 126/146/126
f 130/153/130 129/152/129 37/157/70 36/156/69
f 37/157/70 129/152/129 34/151/64
f 36/156/69 131/154/131 130/153/130
f 35/155/68 131/154/131 36/156/69
f 39/158/71 132/159/132 122/138/121 29/140/53
f 132/159/132 121/139/122 122/138/121
f 132/159/132 39/158/71 41/161/74 133/160/133
f 120/137/120 27/163/76 23/162/75 117/131/118
f 121/139/122 28/164/77 27/163/76 120/137/120
f 132/159/132 38/165/78 28/164/77 121/139/122
f 133/160/133 40/166/79 38/165/78 132/159/132
f 40/166/79 133/160/133 41/161/74
f 117/131/118 23/162/75 15/167/80 106/114/105
f 13/168/81 102/107/101 106/114/105 15/167/80
f 102/107/101 13/168/81 11/169/82 98/103/99
f 98/103/99 11/169/82 10/170/83 97/102/97
f 97/102/97 10/170/83 5/171/84 94/94/93
f 4/172/85 92/92/91 94/94/93 5/171/84
f 92/92/91 4/172/85 1/173/86 88/88/88
f 3/174/87 90/91/89 88/88/88 1/173/86
f 90/91/89 3/174/87 2/90/3
s off
f 134/175/134 135/176/135 137/177/136 136/178/137
f 138/179/138 140/180/139 141/181/140 139/182/141
f 142/183/142 143/184/143 145/185/144 144/186/145
f 146/187/146 147/188/147 149/189/148 148/190/149
f 150/191/150 151/192/151 153/193/152 152/194/153
f 154/195/154 155/196/155 157/197/156 156/198/157
f 158/199/158 160/200/159 161/201/160 159/202/161
f 162/203/162 163/204/163 165/205/164 164/206/165
